<svg xmlns="http://www.w3.org/2000/svg" xmlns:xlink="http://www.w3.org/1999/xlink" version="1.1" id="Layer_1" x="0px" y="0px" width="100%" viewBox="0 0 374 336" enable-background="new 0 0 374 336" xml:space="preserve">

<path fill="#1C1A27" opacity="1.000000" stroke="none" d=" M24.089619,60.422073   C24.765862,59.320019 25.655256,58.761536 25.911791,57.992062   C26.548210,56.083115 26.420099,52.733624 27.450361,52.369164   C30.276146,51.369526 34.166691,50.398712 36.499912,51.608009   C41.364761,54.129436 45.568665,57.974255 49.904858,61.449120   C52.437832,63.478943 54.701908,65.844330 57.086864,68.058838   C57.929371,68.841141 59.130856,69.465637 59.555981,70.431709   C62.439457,76.984177 65.228951,83.580460 67.915817,90.216438   C72.381531,101.245796 76.941605,112.243820 81.065742,123.401474   C82.876945,128.301575 83.693047,133.567108 85.001068,138.656403   C85.812523,141.813644 86.634995,144.970642 87.563293,148.094818   C91.660431,161.883621 96.165047,175.565659 99.756905,189.483856   C101.413124,195.901611 101.305565,202.773468 102.017998,209.437256   C102.105309,210.253983 102.167091,211.125778 102.497612,211.855728   C104.837448,217.023285 108.202248,221.798569 107.944588,227.906372   C107.891777,229.158203 108.968468,230.457672 109.800613,232.369507   C112.509613,225.919937 113.423370,220.546951 112.428360,214.141708   C111.540161,208.423981 113.959290,202.192169 114.925301,196.188248   C114.951012,196.028427 115.089088,195.885239 115.108841,195.726120   C115.878036,189.530045 116.639542,183.333038 117.599800,175.529099   C119.650490,173.159409 123.164642,169.635681 120.635071,163.560913   C120.049652,162.155045 122.908943,159.314774 124.789543,156.096939   C123.875427,152.036148 127.782761,146.444382 132.825745,144.604294   C134.845825,142.604736 136.660416,140.328430 138.919647,138.650986   C152.545517,128.533951 165.676468,130.658493 177.974655,142.365540   C190.473541,154.263672 195.901306,169.212372 200.935135,184.841812   C203.853928,193.904327 208.176895,202.511414 211.167053,211.555191   C213.378403,218.243439 214.351166,225.333084 216.098877,232.186996   C216.743835,234.716354 218.114944,237.051743 218.997253,239.531677   C220.084717,242.588211 220.720932,245.835587 222.070755,248.761215   C223.965988,252.868973 225.685608,257.356110 228.661102,260.596802   C233.060471,265.388245 237.472351,269.869507 239.269165,276.380676   C241.137985,283.152710 238.886169,287.828583 232.299423,290.049988   C224.068726,292.825836 217.761017,290.974213 212.868729,283.530701   C209.158554,277.885773 205.019028,272.096680 203.210297,265.760925   C201.716431,260.528076 199.486710,256.613007 195.705872,253.119980   C194.932526,252.405487 194.027237,251.025497 194.221893,250.196198   C196.236969,241.610657 191.999756,234.054077 189.726700,226.460785   C184.895126,210.320572 178.641998,194.608093 173.082153,178.681686   C172.057220,175.745728 171.979080,172.426941 170.672577,169.658279   C169.650543,167.492493 166.975601,164.122391 165.784653,164.408432   C162.730408,165.141968 159.715912,167.232224 157.411438,169.513382   C155.620911,171.285797 155.172363,174.339630 153.648209,176.483231   C152.731720,177.772171 150.843140,178.337479 149.492767,179.361633   C148.575195,180.057526 147.360184,180.858093 147.098801,181.832077   C146.202362,185.172318 145.667709,188.609680 144.995377,192.010056   C144.836639,192.812912 144.961288,193.910553 144.477722,194.374268   C138.336899,200.262939 139.301926,207.359528 140.673111,214.664032   C141.055618,216.701706 140.763153,218.945267 140.397095,221.027008   C139.733673,224.799835 139.604416,229.005966 137.754105,232.149384   C135.129150,236.608765 135.461700,240.664276 136.682114,245.137115   C136.821564,245.648209 136.416992,246.551071 135.973404,246.940689   C130.852783,251.438309 132.774231,256.783142 134.193573,261.987732   C134.913406,264.627350 136.033844,267.105377 132.550552,268.681458   C132.158447,268.858887 132.161697,269.873047 131.948090,270.487579   C129.083466,278.728455 126.212868,286.967224 123.194809,295.521912   C121.951309,295.886627 120.856750,295.936005 119.131004,295.647797   C113.120049,293.293884 107.772530,291.568634 104.103416,286.407257   C94.876884,273.428223 91.094833,258.190338 86.151878,243.516968   C83.048012,234.303024 80.541985,224.898911 79.579292,214.878387   C78.334373,201.920227 74.281364,189.218384 71.247864,176.451233   C69.736603,170.090729 67.851219,163.816742 66.048523,157.528442   C63.729465,149.438934 61.741409,141.220917 58.847481,133.338486   C55.359184,123.837135 51.203709,114.570328 47.085667,105.313828   C43.721012,97.750778 40.531525,90.019356 36.236687,82.990547   C33.071476,77.810440 28.248735,73.643135 24.164558,69.024551   C24.114624,66.306236 24.064688,63.587929 24.089619,60.422073  z"/>

<path fill="#1C1A27" opacity="1.000000" stroke="none" d=" M336.910919,239.585068   C335.890564,241.319183 335.069580,242.721008 333.975708,243.860962   C330.362366,247.626434 326.815704,251.483978 322.916168,254.936493   C320.460022,257.111115 317.336792,258.512268 314.659454,260.461731   C310.698822,263.345642 306.938019,266.506439 302.945679,269.343231   C301.497467,270.372314 299.623901,270.798492 297.952332,271.518250   C292.060974,274.055145 286.202850,276.674072 280.254974,279.070374   C279.244019,279.477661 277.731873,279.239075 276.657532,278.797272   C267.167206,274.894653 258.584869,269.713196 252.571915,261.066650   C252.100647,260.388977 251.433807,259.791656 251.152451,259.045837   C245.159027,243.159286 239.278305,227.240616 238.369537,210.022324   C238.319443,209.073273 237.830856,208.154846 237.622360,207.205490   C236.070938,200.141006 234.606140,193.056534 232.957428,186.015015   C232.493134,184.032135 231.362579,182.213257 230.792755,180.245285   C229.806946,176.840546 229.183670,173.326431 228.115936,169.950684   C225.982544,163.205780 223.499985,156.568344 221.490234,149.789078   C220.852203,147.636780 220.325195,144.408112 221.434326,143.062347   C222.646103,141.592072 225.788895,141.561020 228.136154,141.229599   C229.850113,140.987564 231.747086,141.685226 233.375580,141.255615   C240.614197,139.346054 246.665131,141.275574 249.927109,148.319946   C252.718552,154.348175 254.277832,161.001022 255.896927,167.498489   C256.924103,171.620590 256.671936,176.079437 260.429047,179.150375   C261.130676,179.723892 261.690765,180.879623 261.727722,181.790573   C261.960510,187.526962 261.729340,193.295975 262.225922,199.004257   C262.810333,205.722473 263.727631,212.436493 264.959839,219.066986   C266.326935,226.423386 267.976227,233.748016 269.949188,240.964401   C271.448761,246.449081 275.712616,248.186386 281.470306,247.441956   C286.015625,246.854263 289.495544,245.557632 292.333740,241.627975   C293.903290,239.454819 297.175873,238.560333 299.563110,236.918411   C303.872955,233.954147 307.933655,230.598785 312.384247,227.873581   C324.016541,220.750870 326.167450,221.034210 336.496155,229.939819   C336.885468,233.027100 336.935364,236.079971 336.910919,239.585068  z"/>
<path fill="#1C1A27" opacity="1.000000" stroke="none" d=" M221.621597,50.088978   C226.619263,51.462887 231.318863,52.454742 235.736160,54.172497   C238.582550,55.279385 241.618790,56.977329 243.440720,59.297207   C244.892410,61.145626 245.861267,64.978012 244.902542,66.806801   C242.272430,71.823830 238.534103,76.263908 235.187820,80.898697   C234.339081,82.074249 233.080139,82.999466 232.417191,84.254898   C230.280045,88.302071 227.707367,90.983017 222.762619,92.355156   C218.538055,93.527443 214.951035,97.315987 211.325989,100.248856   C206.855667,103.865608 200.132065,102.595245 198.309799,97.203392   C196.085175,90.621040 197.822235,84.389252 200.987228,78.434021   C201.852646,76.805672 202.077515,74.775391 203.139542,73.328201   C204.549072,71.407471 206.548965,69.931000 208.185623,68.162262   C209.378082,66.873589 210.491714,65.485825 211.457199,64.021393   C212.260315,62.803284 212.451416,60.841537 213.513489,60.195812   C217.216553,57.944344 217.130737,54.545074 216.982285,50.582359   C218.384109,50.114521 219.793976,50.064590 221.621597,50.088978  z"/>
</svg>