<svg 
 xmlns="http://www.w3.org/2000/svg"
 xmlns:xlink="http://www.w3.org/1999/xlink" viewBox="0 0 592 492"
 >
<path
 d="M471.360,428.561 L441.929,392.156 L425.112,369.754 C425.112,369.754 425.16,364.327 422.309,361.352 C418.279,356.923 411.97,354.352 411.97,354.352 C411.97,354.352 406.893,333.10 406.893,316.547 C406.893,302.379 411.97,292.744 411.97,292.744 C411.97,292.744 417.306,293.542 422.309,288.543 C427.794,283.63 432.119,271.741 432.119,271.741 C432.119,271.741 436.352,261.370 437.725,250.739 C439.154,239.676 437.725,228.336 437.725,228.336 C437.725,228.336 438.259,216.324 433.521,210.134 C429.165,204.443 419.506,204.533 419.506,204.533 C419.506,204.533 419.974,182.993 415.302,162.528 C410.871,143.116 401.287,124.723 401.287,124.723 C401.287,124.723 391.770,107.589 374.660,93.920 C364.171,85.539 349.32,82.452 336.770,73.669 C315.14,58.87 293.253,44.704 281.374,43.572 C281.374,43.572 235.391,41.715 210.691,58.915 C189.397,73.742 188.267,107.921 188.267,107.921 C188.267,107.921 183.561,115.858 181.260,124.723 C178.672,134.695 178.457,145.726 178.457,145.726 C178.457,145.726 172.851,164.609 172.851,183.531 C172.851,204.416 178.457,225.536 178.457,225.536 L182.662,308.146 C182.662,308.146 182.816,330.266 198.78,352.951 C204.642,362.710 217.320,370.618 223.685,380.327 C229.292,388.879 240.121,393.556 240.121,393.556 C240.121,393.556 235.215,398.810 233.114,406.158 C231.11,413.512 231.712,422.960 231.712,422.960 C231.712,422.960 213.696,431.45 192.472,438.362 C179.367,442.880 167.594,446.480 153.231,452.364 C121.242,465.467 92.969,481.767 92.969,481.767 C87.362,480.531 80.746,485.67 74.465,491.904 C28.153,439.764 0.14,371.149 0.14,295.956 C0.14,132.835 132.369,0.600 295.639,0.600 C458.908,0.600 591.264,132.835 591.264,295.956 C591.264,361.168 570.94,421.431 534.269,470.295 C500.94,449.683 471.360,428.561 471.360,428.561 Z"/>
</svg>