<svg version="1.1" id="Layer_1" xmlns="http://www.w3.org/2000/svg" xmlns:xlink="http://www.w3.org/1999/xlink" x="0px" y="0px"
	 width="100%" viewBox="0 0 2200 368" enable-background="new 0 0 2200 368" xml:space="preserve">

<path fill="#1C1A27" opacity="1.000000" stroke="none" 
	d="
M709.533875,1.000000 
	C718.573975,6.537552 722.494019,14.643353 725.390442,24.361519 
	C728.887939,36.096272 735.336243,46.922489 739.357849,58.539883 
	C742.214172,66.791115 743.210510,75.692360 744.961121,84.318878 
	C748.331543,100.927048 750.944763,117.727516 755.170349,134.113449 
	C760.124634,153.325317 765.163574,172.599121 774.142883,190.542007 
	C776.755554,195.762833 778.232727,201.561768 780.119629,207.133194 
	C782.009888,212.714569 784.839233,216.785995 791.543152,217.267944 
	C794.729553,217.497025 797.908508,219.145752 800.867798,220.604065 
	C802.143799,221.232864 803.696594,223.020126 803.680786,224.262772 
	C803.596619,230.883926 803.806396,237.654877 802.475647,244.075790 
	C800.937073,251.499847 795.647034,253.748154 788.793823,250.178268 
	C776.607971,243.830582 768.619690,233.293579 761.333191,221.907410 
	C752.816772,208.599396 749.413513,193.419739 744.133057,178.915070 
	C743.343506,176.746201 742.637878,174.546860 741.400879,170.916092 
	C739.311096,176.770859 737.880981,181.434784 736.003296,185.910934 
	C730.997009,197.845428 726.009399,209.796463 720.593262,221.546799 
	C717.566833,228.112610 713.606873,234.242081 710.241150,240.659225 
	C706.850403,247.124069 700.978699,250.571609 694.894592,253.827148 
	C693.447083,254.601654 691.467834,254.955536 690.596497,256.138733 
	C685.584961,262.944214 679.002258,260.911682 673.573792,258.193970 
	C665.473267,254.138535 657.080383,249.930405 651.703125,242.048294 
	C649.969788,239.507629 648.817566,236.568542 647.427612,233.797577 
	C647.210083,233.363892 647.253662,232.779816 646.990417,232.391418 
	C642.878235,226.324249 638.735474,220.277847 634.104187,213.501556 
	C632.859924,215.869278 630.760254,218.464539 630.095093,221.386368 
	C627.874146,231.142227 614.137756,245.526596 601.377869,246.319824 
	C589.281128,247.071838 580.237427,241.921036 573.180115,234.361359 
	C563.051086,223.511337 553.560852,211.606384 546.142639,198.794174 
	C535.626221,180.630783 527.251221,161.228073 517.940247,142.365280 
	C517.020142,140.501190 515.955383,138.708450 514.957825,136.882599 
	C514.391052,136.769608 513.824341,136.656616 513.257568,136.543625 
	C509.838593,143.408203 505.331085,149.964722 503.278992,157.216125 
	C500.770447,166.080505 500.121826,175.504944 499.069855,184.732895 
	C498.582275,189.009842 498.225159,193.004074 494.258209,195.660629 
	C493.490051,196.175003 492.590363,197.226440 492.585754,198.034882 
	C492.535583,206.844574 486.743469,213.566132 484.224640,221.461029 
	C483.769073,222.888870 483.604736,224.537781 482.767212,225.694626 
	C477.614929,232.811432 474.774658,240.854340 472.325226,249.202286 
	C470.894379,254.078705 463.302063,257.026855 458.305908,254.294891 
	C448.714722,249.050385 440.667328,242.415955 438.687408,230.326630 
	C437.699341,224.293564 435.336426,217.995056 431.893127,212.987000 
	C428.139496,207.527557 428.362000,201.491806 426.832275,195.762985 
	C425.092896,189.249054 425.110779,182.231125 423.095184,175.832214 
	C416.854279,156.019104 410.007843,136.396759 403.401703,116.698616 
	C401.465332,110.924797 400.345123,103.784973 405.157898,100.420830 
	C410.273010,96.845390 416.451416,101.497353 421.619171,104.383644 
	C423.144318,105.235474 424.663269,106.748306 425.359955,108.323227 
	C428.755249,115.998085 431.878296,123.793587 435.070862,131.557434 
	C435.319855,132.162949 435.309357,132.870102 435.508820,133.501801 
	C438.794647,143.909042 442.241455,154.268295 445.342224,164.730164 
	C447.542908,172.155243 448.567841,180.004669 451.438568,187.132660 
	C453.993988,193.477615 455.180145,199.737823 455.352539,206.426758 
	C455.389648,207.864899 456.632690,209.271988 457.948181,211.991577 
	C459.323669,209.382599 460.492493,208.007248 460.787506,206.464798 
	C462.306244,198.523560 463.007355,190.374496 465.162231,182.622772 
	C466.872314,176.471039 470.576843,170.901581 472.800140,164.854584 
	C474.202728,161.039810 473.569489,156.280289 475.515503,152.905151 
	C478.867462,147.091736 477.738800,140.800888 479.064484,134.830322 
	C479.511932,132.814865 479.662384,130.618729 479.383392,128.582626 
	C478.924347,125.232506 479.474121,122.793129 482.059570,120.118500 
	C486.003326,116.038734 489.370880,111.299797 492.418640,106.483551 
	C495.794739,101.148422 503.663208,95.256729 508.009247,97.414101 
	C514.316040,100.544746 519.807617,105.413300 525.390808,109.862007 
	C527.869934,111.837364 529.803711,114.532661 531.830444,117.026764 
	C533.016235,118.485931 534.099915,120.100967 534.872437,121.807541 
	C536.397217,125.175949 537.560120,128.708084 539.082642,132.077591 
	C540.849121,135.986725 542.958008,139.741455 544.715515,143.654297 
	C553.006592,162.113556 560.250793,181.110855 572.629700,197.447800 
	C572.931396,197.846024 573.143921,198.489944 573.531311,198.618881 
	C581.116882,201.143417 583.049011,209.094345 588.248169,213.903992 
	C592.184631,217.545563 596.012268,216.686295 598.566101,211.968704 
	C600.341675,208.688934 602.304077,204.930649 605.240723,202.972153 
	C612.820251,197.917252 612.527893,189.795990 613.699829,182.627518 
	C615.438660,171.991394 615.479492,171.382431 626.414856,173.002975 
	C626.709656,173.046677 627.039429,172.854523 627.588562,172.710571 
	C627.339600,167.498245 626.974365,162.241394 626.865051,156.979233 
	C626.717590,149.878540 626.860718,142.771454 626.687317,135.671814 
	C626.614746,132.700348 626.203613,129.713409 625.680115,126.781052 
	C623.904175,116.833282 626.415283,107.358574 628.896851,97.920219 
	C629.303101,96.375000 631.108765,95.134682 632.413147,93.908188 
	C633.492859,92.892982 635.243835,92.363533 635.913208,91.176628 
	C640.610168,82.848335 649.013550,82.447250 656.966187,80.969643 
	C659.723938,80.457245 662.434204,79.240219 665.177673,79.203568 
	C669.419800,79.146881 673.678772,79.762901 677.916870,80.220963 
	C680.376770,80.486824 682.868591,80.792572 685.239685,81.458832 
	C688.007324,82.236549 690.667725,83.404846 693.352356,84.460358 
	C693.789124,84.632072 694.063293,85.295029 694.492249,85.397415 
	C704.267395,87.730759 710.645386,95.693779 719.106812,100.189812 
	C719.356567,100.322510 719.738464,100.206589 720.958740,100.206589 
	C720.666382,97.406448 720.826050,94.583809 720.026733,92.065590 
	C717.219482,83.221710 713.890015,74.542168 711.142273,65.681343 
	C709.488159,60.347324 708.773987,54.726467 707.217102,49.356373 
	C705.658508,43.980473 704.237793,38.443241 699.242981,34.799011 
	C698.471069,34.235802 698.049988,31.808186 698.593262,31.049917 
	C702.185852,26.035513 700.232788,21.291500 696.958008,17.844501 
	C692.005188,12.631196 692.103088,7.544251 694.945007,1.365461 
	C699.689270,1.000000 704.378479,1.000000 709.533875,1.000000 
M692.274719,110.136299 
	C690.244690,109.413506 688.184631,108.003273 686.189880,108.090195 
	C678.654663,108.418587 671.118774,109.061646 663.637817,110.015816 
	C662.204590,110.198616 660.818542,112.173355 659.768799,113.587234 
	C658.388855,115.445801 657.284302,117.525894 656.200073,119.583847 
	C652.511719,126.584572 649.525269,133.664871 652.117126,141.908127 
	C652.935425,144.510712 652.996033,147.403687 653.079773,150.173538 
	C653.226929,155.040833 653.040405,159.917603 653.152100,164.786758 
	C653.249634,169.038849 654.143127,173.352341 653.663940,177.521362 
	C652.677063,186.108810 654.055542,193.879364 658.473389,201.416473 
	C660.382385,204.673492 661.758057,208.940231 661.488220,212.609497 
	C661.108643,217.772202 663.982727,220.696091 666.740967,223.894745 
	C667.500488,224.775497 669.614868,225.401993 670.642273,224.988632 
	C677.111938,222.385483 683.210571,219.246231 687.060486,212.900116 
	C690.405884,207.385620 694.027466,202.026779 697.757690,196.762589 
	C699.720642,193.992264 703.288086,191.907028 704.187744,188.925903 
	C706.280029,181.993408 707.093445,174.683334 708.641724,167.573425 
	C709.154175,165.220108 709.918213,162.715546 711.293152,160.801666 
	C713.682312,157.476151 715.660950,154.370804 715.011963,149.921509 
	C714.758911,148.186462 715.808289,145.923935 716.934082,144.394714 
	C719.368530,141.087967 721.203003,131.801559 719.098633,129.896011 
	C711.022583,122.583092 703.926086,113.910202 692.274719,110.136299 
z"/>
<path fill="#1C1A27" opacity="1.000000" stroke="none" 
	d="
M2201.000000,237.531586 
	C2200.140625,238.754822 2199.002197,239.350693 2198.467041,240.290207 
	C2194.854492,246.630920 2189.602783,248.195007 2182.307861,243.225021 
	C2175.660400,238.696274 2169.430908,233.128922 2164.237305,226.987595 
	C2155.579834,216.750458 2149.624023,204.840561 2146.026367,191.792419 
	C2144.308105,185.560257 2141.978516,179.496658 2139.525146,172.158356 
	C2137.214600,177.099518 2135.502441,181.115356 2133.498047,184.979538 
	C2128.005859,195.567093 2122.681396,206.258926 2116.718750,216.578918 
	C2112.948975,223.103317 2108.766113,229.617493 2103.612061,235.036545 
	C2099.928955,238.909332 2094.362061,241.019058 2089.557373,243.779037 
	C2088.149414,244.587799 2086.193604,244.575348 2084.966064,245.543839 
	C2078.033447,251.012848 2071.153564,249.077591 2064.553955,245.287628 
	C2058.823486,241.996719 2053.181396,238.413818 2048.046631,234.281174 
	C2045.495239,232.227646 2044.160156,228.656784 2042.296021,225.758621 
	C2041.774536,224.947845 2041.537354,223.729034 2040.814453,223.309189 
	C2035.738647,220.361404 2034.012451,215.173584 2032.626831,210.176529 
	C2029.968628,200.591705 2026.804321,190.908127 2026.043701,181.095444 
	C2025.042236,168.176498 2026.163330,155.093765 2026.356079,142.081207 
	C2026.451782,135.617096 2025.838623,129.053192 2026.773193,122.715340 
	C2027.751221,116.081825 2030.014893,110.236702 2035.156982,104.589607 
	C2044.105347,94.762482 2055.800537,94.187439 2066.944824,91.219460 
	C2069.585693,90.516220 2072.554688,90.827408 2075.354248,90.989601 
	C2079.966064,91.256783 2084.811523,91.007904 2089.106934,92.384613 
	C2095.303955,94.370934 2101.214111,97.390854 2107.025635,100.397072 
	C2111.529785,102.726952 2115.695557,105.711212 2121.078857,109.070557 
	C2121.078857,106.037552 2121.444824,104.173706 2121.014893,102.516357 
	C2119.221191,95.602058 2117.269775,88.725449 2115.219971,81.881790 
	C2113.204346,75.151932 2111.362793,68.332977 2108.755371,61.829643 
	C2106.897949,57.197033 2103.851562,53.047775 2101.443115,48.624424 
	C2100.893311,47.614883 2100.139893,45.879223 2100.574707,45.302029 
	C2104.343262,40.297920 2102.074707,35.950348 2098.927734,32.156376 
	C2095.885498,28.488483 2094.059082,25.155920 2097.064697,20.672279 
	C2099.931152,16.396486 2104.532715,16.434492 2108.678955,16.469355 
	C2115.977783,16.530722 2121.324951,20.082117 2123.899414,27.231550 
	C2128.026611,38.693134 2131.855713,50.276340 2136.406982,61.567871 
	C2146.168457,85.786377 2148.832031,111.568054 2153.720215,136.873367 
	C2154.525635,141.043091 2156.290527,145.028534 2157.629150,149.093430 
	C2157.990234,150.190262 2158.721436,151.254684 2158.763184,152.353714 
	C2159.280762,165.984467 2167.294922,176.957779 2171.429688,189.274567 
	C2173.284912,194.800690 2175.284424,200.229965 2177.421875,205.647827 
	C2179.351318,210.538727 2182.170166,213.609818 2187.817139,214.295258 
	C2192.039307,214.807831 2196.096680,216.681946 2200.613770,217.974915 
	C2201.000000,224.354401 2201.000000,230.708786 2201.000000,237.531586 
M2089.362061,116.896423 
	C2076.065674,115.752686 2062.959717,115.537842 2055.291504,129.313553 
	C2053.094971,133.259933 2051.491699,137.896896 2051.038574,142.361572 
	C2050.483887,147.824219 2051.684570,153.440063 2051.655518,158.987167 
	C2051.616699,166.384384 2050.783447,173.786987 2050.951416,181.172302 
	C2051.058594,185.890884 2051.222412,191.221680 2053.416748,195.121124 
	C2056.056641,199.812912 2057.348145,204.343735 2057.487793,209.500977 
	C2057.645752,215.327881 2063.152344,219.126343 2068.683838,217.514648 
	C2076.723145,215.172104 2082.442871,210.024048 2087.235840,203.368286 
	C2090.303711,199.107880 2094.028564,195.324554 2097.391846,191.271454 
	C2099.200195,189.092453 2101.296143,187.006226 2102.518066,184.513306 
	C2106.610107,176.163177 2104.609375,165.456070 2112.572510,158.499298 
	C2113.402832,157.773895 2113.797607,155.957184 2113.608154,154.772476 
	C2113.115967,151.695526 2114.799561,149.754242 2115.996582,147.217880 
	C2117.724121,143.557007 2119.498291,137.203094 2117.667236,135.056122 
	C2110.431152,126.571213 2101.377197,119.940750 2089.362061,116.896423 
z"/>
<path fill="#1C1A27" opacity="1.000000" stroke="none" 
	d="
M951.460632,369.000000 
	C946.172424,366.317902 945.820007,361.552917 944.767761,356.809723 
	C943.849548,352.670776 941.387939,348.899445 939.994812,344.833282 
	C938.723572,341.123169 938.036743,337.216888 936.973999,333.430267 
	C935.548218,328.350159 933.965027,323.314301 932.528503,318.237030 
	C930.665161,311.651215 928.878784,305.043610 927.061462,298.444824 
	C925.564209,293.007996 924.072815,287.569519 922.568359,282.134674 
	C922.480835,281.818451 922.383850,281.389526 922.148926,281.246124 
	C915.082520,276.932098 918.174561,269.112335 915.855713,263.179565 
	C913.761536,257.821564 911.318542,252.599670 909.015991,247.323593 
	C908.562622,246.284714 907.636597,245.276871 907.625488,244.247162 
	C907.505798,233.172714 902.862549,223.286255 899.586365,213.043060 
	C899.437988,212.578949 898.902710,212.190948 898.870483,211.744186 
	C897.953918,199.057037 889.879395,188.631012 888.067627,175.981354 
	C886.638062,166.000351 881.833069,156.501160 878.510742,146.793625 
	C876.955444,142.249405 875.327026,137.730011 873.796265,133.177673 
	C872.705200,129.932922 870.866760,129.162506 867.676697,130.640350 
	C863.166199,132.729950 858.379517,134.245697 853.953003,136.485397 
	C851.402222,137.776031 849.515747,140.376968 846.967102,141.675644 
	C845.524597,142.410706 842.965088,142.353653 841.569824,141.531418 
	C836.416931,138.494736 831.067993,135.496674 826.741577,131.465683 
	C824.281616,129.173645 823.574158,124.938499 822.280396,121.502014 
	C821.969482,120.676079 822.587036,119.544350 822.570923,118.556587 
	C822.448425,111.027069 823.432556,110.191795 830.564270,107.616653 
	C836.713623,105.396225 842.476685,102.127876 848.526489,99.600227 
	C851.132629,98.511322 854.050598,97.484665 856.792297,97.568031 
	C860.697327,97.686768 861.811340,96.295021 861.698975,92.648651 
	C861.624146,90.217491 862.303101,87.763115 862.644653,85.319122 
	C865.652710,86.009033 868.758789,86.434982 871.627075,87.501015 
	C873.046448,88.028534 874.199707,89.609505 875.168030,90.936630 
	C876.740601,93.092003 878.245728,94.862450 881.318787,93.634834 
	C881.925110,93.392624 882.897827,93.935936 883.657776,94.230156 
	C892.567322,97.679443 901.468933,101.149063 910.370483,104.619011 
	C910.834961,104.800095 911.290955,105.235420 911.731812,105.210846 
	C922.484802,104.611603 929.914734,111.376205 937.949646,116.884041 
	C940.685059,118.759087 943.541199,120.711655 946.636475,121.758949 
	C954.881531,124.548706 959.980896,131.452255 966.686096,136.222168 
	C970.881531,139.206772 973.481934,143.761292 977.038208,146.805481 
	C985.320496,153.895172 989.887024,163.588394 996.881531,171.494095 
	C1000.839355,175.967499 1002.758972,182.185455 1006.033936,187.339722 
	C1008.841675,191.758545 1010.889526,196.147217 1010.262634,201.553299 
	C1010.128174,202.712692 1010.857483,204.210526 1011.637939,205.197220 
	C1015.407227,209.962616 1013.973083,215.440140 1014.439270,220.798538 
	C1015.335632,231.101257 1007.363770,235.134964 1001.064453,238.431931 
	C994.042969,242.106857 986.072510,245.574615 976.803589,241.918549 
	C971.313293,239.752960 964.444763,241.112961 958.199158,240.818512 
	C954.857178,240.660934 951.520447,240.377502 948.184326,240.113388 
	C944.433899,239.816513 940.686768,239.477402 936.564941,239.124725 
	C936.490051,239.603592 936.110413,240.426544 936.293884,241.095001 
	C940.505798,256.445221 944.797241,271.773621 949.030579,287.118011 
	C950.380493,292.011047 950.625793,297.517761 953.109070,301.719849 
	C957.278320,308.774780 958.840027,316.543518 958.692017,324.015717 
	C958.502686,333.578827 963.558472,341.585938 964.187866,350.589661 
	C964.595520,356.420349 963.545471,362.352936 963.074341,368.619934 
	C959.307068,369.000000 955.614197,369.000000 951.460632,369.000000 
M944.913452,214.782745 
	C950.483704,215.141220 956.051453,215.551422 961.625854,215.826233 
	C963.268433,215.907196 965.101501,216.010925 966.548889,215.398697 
	C970.134644,213.882019 973.378540,214.250153 976.501587,216.335297 
	C979.892517,218.599411 982.573059,216.870926 982.977051,213.874146 
	C983.804504,207.736160 985.378113,200.797729 983.389038,195.385193 
	C980.134033,186.527664 975.144592,177.944885 969.287964,170.504669 
	C963.005005,162.522873 954.681152,156.179504 947.627808,148.759979 
	C943.563110,144.484314 938.623962,142.507431 933.323181,140.469193 
	C926.221313,137.738403 920.927734,130.085770 911.790344,132.890610 
	C911.056152,133.115982 909.996826,132.146530 909.052185,131.846588 
	C905.750549,130.798096 902.433044,129.799759 898.421692,128.567368 
	C899.466187,135.351395 901.476318,140.198959 905.694824,144.195465 
	C907.224976,145.645157 908.443298,147.916183 908.825745,149.992599 
	C909.962830,156.165268 910.231506,162.513077 911.599426,168.622299 
	C912.406921,172.228653 914.682190,175.499939 916.246094,178.945190 
	C917.732666,182.220139 919.514221,185.418442 920.525635,188.839752 
	C922.564758,195.737473 924.194641,202.757370 925.941833,209.739746 
	C926.804749,213.188431 929.037598,213.829391 932.329956,213.742493 
	C936.230957,213.639526 940.152283,214.305832 944.913452,214.782745 
z"/>
<path fill="#1C1A27" opacity="1.000000" stroke="none" 
	d="
M1.000000,221.458069 
	C3.107199,219.707123 5.726772,218.838852 7.219862,217.037079 
	C10.844513,212.663040 14.684414,212.465897 20.007061,213.734085 
	C28.461782,215.748535 35.225315,219.701279 40.777870,226.292099 
	C46.124805,232.638870 45.292580,245.005676 38.474266,247.230179 
	C32.087830,249.313782 25.096127,250.407822 18.476183,247.140137 
	C11.541105,243.716965 5.601066,239.118866 1.288603,232.175385 
	C1.000000,228.638718 1.000000,225.277420 1.000000,221.458069 
z"/>
<path fill="#1C1A27" opacity="1.000000" stroke="none" 
	d="
M1300.976318,212.366394 
	C1306.420166,203.882858 1314.211670,198.378738 1321.967773,192.814835 
	C1323.155640,191.962692 1324.151489,190.762970 1325.029663,189.571747 
	C1331.848389,180.323013 1338.616211,171.036804 1345.401123,161.763214 
	C1345.693481,161.363480 1345.915894,160.824722 1346.312256,160.601685 
	C1358.163574,153.932632 1358.576782,142.094147 1360.078369,130.638626 
	C1360.809814,125.057732 1361.936279,119.493210 1363.435425,114.073860 
	C1363.799072,112.759361 1366.271729,111.333389 1367.895752,111.171013 
	C1382.423706,109.718361 1394.017578,125.726395 1389.038208,139.899139 
	C1387.905151,143.124084 1387.673828,146.662521 1386.985107,150.048065 
	C1386.495850,152.453491 1385.766602,154.822754 1385.454346,157.248047 
	C1385.142578,159.669815 1384.778198,162.218445 1385.194214,164.577927 
	C1387.373047,176.935669 1391.680054,188.489899 1396.923584,199.968948 
	C1401.964478,211.004395 1410.466553,215.520142 1421.143799,217.315155 
	C1424.986328,217.961121 1429.572876,217.248016 1433.165894,215.667999 
	C1440.458618,212.460999 1447.384766,208.767731 1456.224121,213.596329 
	C1454.292480,204.389236 1452.438965,196.385056 1450.975342,188.310242 
	C1449.838989,182.041306 1448.741699,175.705154 1448.444824,169.360611 
	C1448.128540,162.602615 1448.759644,155.799057 1449.003662,149.016342 
	C1449.295288,140.914246 1448.729980,132.649033 1450.192261,124.761642 
	C1451.445923,118.000343 1453.602539,111.843147 1460.445801,106.650284 
	C1468.126831,100.821770 1476.193726,100.097931 1484.455322,97.603584 
	C1494.751343,94.494911 1504.618408,96.803825 1513.922119,99.053200 
	C1523.232544,101.304184 1531.603394,107.460327 1540.363770,111.948372 
	C1541.828247,112.698608 1543.178711,113.671181 1545.623657,115.186768 
	C1545.623657,112.003647 1546.192871,109.415268 1545.519897,107.205116 
	C1543.254883,99.766182 1540.375122,92.515259 1538.075073,85.085762 
	C1536.714478,80.690941 1536.481201,75.913902 1534.861328,71.642288 
	C1533.322144,67.583069 1530.574341,63.992279 1528.497681,60.120579 
	C1527.891602,58.990807 1527.047363,57.010170 1527.529297,56.428780 
	C1531.761475,51.325264 1527.695557,47.858585 1525.419556,43.990223 
	C1524.319336,42.120216 1522.032104,39.075306 1522.549561,38.455605 
	C1524.636719,35.956104 1527.370605,32.932892 1530.293945,32.383953 
	C1541.475708,30.284307 1548.860962,34.831890 1552.968140,45.500172 
	C1556.449097,54.541946 1559.597290,63.712452 1563.113770,72.739845 
	C1571.610840,94.553848 1573.651123,117.745522 1578.161865,140.436905 
	C1580.819702,153.807541 1585.740723,166.759171 1590.083496,179.752289 
	C1592.673584,187.501450 1596.177490,194.941620 1599.148926,202.568115 
	C1600.854370,206.945755 1603.495728,209.994232 1608.484741,210.374496 
	C1609.305664,210.437057 1610.133911,210.656311 1610.916626,210.925491 
	C1614.948608,212.312195 1620.780029,211.439590 1621.696289,217.193817 
	C1622.906738,224.796524 1622.489380,232.753464 1615.337891,237.411484 
	C1612.752441,239.095444 1607.286133,239.069962 1604.635986,237.417023 
	C1597.526733,232.982590 1590.230103,228.094711 1584.883667,221.794968 
	C1579.302368,215.218353 1575.323975,207.049362 1571.722900,199.088821 
	C1568.066162,191.005417 1565.725220,182.326691 1562.401245,172.734238 
	C1560.626587,176.300690 1559.514893,178.826935 1558.157715,181.213745 
	C1550.450806,194.769150 1543.172241,208.606476 1534.710938,221.676666 
	C1531.092041,227.266800 1525.329346,231.718384 1519.876099,235.799118 
	C1514.785522,239.608444 1509.026978,242.756805 1503.143799,245.179703 
	C1500.082397,246.440506 1495.849976,246.385529 1492.610474,245.399887 
	C1482.954956,242.462173 1474.090942,237.800232 1467.528931,229.804703 
	C1465.648926,227.514084 1464.479858,224.639999 1462.262939,220.774963 
	C1459.085327,228.648361 1454.155518,233.011353 1447.741821,235.863785 
	C1432.780884,242.517593 1417.933228,243.629288 1403.239502,235.180786 
	C1396.167236,231.114471 1390.213989,226.037216 1384.561279,219.864304 
	C1377.387207,212.029907 1372.712402,203.667664 1369.831177,193.686310 
	C1368.576660,189.340591 1365.616455,185.487305 1362.612793,179.884155 
	C1360.981689,183.327377 1359.780029,185.840225 1358.605347,188.365631 
	C1358.398438,188.810425 1358.425659,189.624161 1358.139771,189.733902 
	C1351.820312,192.159836 1352.671021,199.179703 1349.287109,203.445740 
	C1344.963257,208.896851 1340.553101,214.281601 1336.090454,219.620026 
	C1331.880005,224.656693 1327.566162,229.607376 1323.273926,234.575256 
	C1319.667603,238.749222 1304.842407,242.265427 1299.408691,240.921600 
	C1293.623291,239.490814 1288.155518,237.604202 1284.100952,233.167969 
	C1280.189453,228.888321 1276.648804,224.258743 1273.085815,219.673630 
	C1263.373901,207.176041 1262.374878,191.256104 1256.614990,177.198135 
	C1255.870850,175.382004 1256.394653,173.074402 1256.160278,171.013901 
	C1255.904297,168.762146 1255.625610,166.486465 1255.048828,164.302490 
	C1253.148193,157.104889 1251.259888,149.897598 1249.077881,142.782639 
	C1247.050415,136.172104 1245.057983,129.496338 1242.275513,123.191116 
	C1240.424316,118.995522 1238.718628,114.912292 1241.227051,110.918022 
	C1243.990967,106.516953 1249.002441,106.228088 1253.380859,107.543694 
	C1257.838379,108.883003 1262.067627,111.241249 1266.074219,113.682686 
	C1267.494019,114.547913 1268.310303,116.877403 1268.806641,118.700500 
	C1270.719238,125.726746 1271.881104,132.998581 1274.295044,139.835632 
	C1276.745117,146.774872 1278.231201,153.649796 1278.483398,161.022659 
	C1278.627441,165.230698 1280.396973,169.425934 1281.701904,173.542175 
	C1284.123413,181.179810 1284.382324,189.696655 1291.302490,195.550293 
	C1292.619751,196.664429 1292.484131,199.863419 1292.478760,202.099213 
	C1292.466675,207.177124 1296.197021,212.117767 1300.976318,212.366394 
M1540.334961,137.114700 
	C1539.656982,136.633881 1538.865723,136.256699 1538.317749,135.657043 
	C1524.780884,120.843933 1507.701538,118.410255 1489.048584,121.580086 
	C1487.973511,121.762772 1486.715210,122.386269 1486.052002,123.213371 
	C1482.961792,127.067482 1479.796143,130.905060 1477.173462,135.073212 
	C1475.645508,137.501419 1474.354614,140.515030 1474.253418,143.312149 
	C1474.053345,148.845276 1475.013916,154.411057 1475.011230,159.963104 
	C1475.008179,166.156464 1474.126099,172.357086 1474.262695,178.540527 
	C1474.384888,184.073090 1475.024292,189.654449 1476.084961,195.087524 
	C1476.973145,199.637604 1479.143311,203.931290 1480.110840,208.473755 
	C1481.030518,212.792267 1485.235229,218.246933 1488.110229,217.340714 
	C1496.275513,214.766998 1503.492920,210.687881 1508.750122,203.597824 
	C1510.904419,200.692322 1513.441162,198.053619 1515.945923,195.429184 
	C1518.518799,192.733261 1522.231934,190.660034 1523.725464,187.500916 
	C1526.461670,181.713531 1527.836304,175.293823 1529.985840,169.210968 
	C1530.684082,167.235092 1532.070312,165.509689 1533.067139,163.630188 
	C1534.413330,161.092117 1535.747192,158.543991 1536.973022,155.946686 
	C1537.876221,154.032806 1538.169678,151.663132 1539.482910,150.143021 
	C1543.026855,146.041382 1543.871094,140.508926 1540.334961,137.114700 
z"/>
<path fill="#1C1A27" opacity="1.000000" stroke="none" 
	d="
M322.666443,248.651062 
	C317.364868,254.985764 308.447632,260.689392 301.612183,255.746887 
	C293.816528,250.110138 285.798523,244.739624 278.369537,238.652435 
	C273.838196,234.939545 270.701141,229.873657 270.649170,223.531509 
	C270.642609,222.733673 270.403076,221.805939 269.951385,221.163483 
	C264.002411,212.702591 264.522247,202.602783 262.678345,193.086395 
	C260.474945,181.714417 257.969177,170.401199 255.634048,159.054352 
	C255.334412,157.598343 254.796768,155.956909 255.176376,154.632706 
	C258.156494,144.236832 255.930679,133.735504 255.965927,123.292038 
	C255.977570,119.844299 255.636917,116.322838 254.895325,112.958977 
	C252.843506,103.651886 253.824631,94.813972 258.019409,86.262276 
	C259.470367,83.304268 259.779755,78.728256 262.055481,77.436096 
	C268.270020,73.907478 275.051483,70.541718 281.991028,69.361885 
	C288.861938,68.193733 296.304352,69.151970 303.301849,70.330582 
	C309.585266,71.388908 315.672577,73.825691 321.719208,76.007042 
	C326.467712,77.720085 330.873260,80.534981 335.708038,81.811752 
	C339.862823,82.908951 344.521271,83.246422 348.751892,82.592667 
	C353.161774,81.911209 356.007965,82.952789 358.757690,86.236801 
	C360.843231,88.727501 363.562897,90.684021 365.972412,92.908562 
	C366.667694,93.550446 367.568512,94.191200 367.857117,95.014130 
	C369.186523,98.804825 370.422638,102.634827 371.496704,106.504990 
	C371.879242,107.883492 371.786652,109.415741 371.777618,110.876984 
	C371.748474,115.595924 371.105682,120.387451 371.718018,125.016258 
	C372.662445,132.155441 373.933746,139.340546 376.029480,146.212448 
	C378.010590,152.708405 377.097626,159.971436 381.670746,165.873199 
	C382.902893,167.463364 381.962280,170.656708 382.227570,173.091431 
	C383.036865,180.518555 384.118469,187.881531 388.711182,194.153610 
	C388.804504,194.281021 388.903503,194.492889 388.861053,194.618408 
	C386.568878,201.394638 392.242767,206.733887 392.189026,213.179291 
	C392.156281,217.107422 393.158234,220.840546 398.341248,221.363724 
	C399.649994,221.495804 401.193176,222.605453 402.013458,223.719025 
	C406.082336,229.242813 409.947052,234.917053 413.875336,240.544128 
	C414.063446,240.813614 414.208466,241.126846 414.311401,241.440140 
	C415.608459,245.388412 411.294159,252.542145 405.283569,256.425079 
	C401.212097,259.055328 395.933807,258.575958 392.384003,255.925476 
	C382.518097,248.559113 377.157166,238.258087 372.891998,227.140289 
	C370.626007,221.233688 367.847931,215.502579 365.912811,209.495148 
	C363.324310,201.459427 361.395691,193.213303 359.044281,185.097900 
	C358.197266,182.174606 356.946655,179.368225 355.880219,176.508484 
	C355.348969,176.549469 354.817719,176.590439 354.286469,176.631409 
	C353.580597,179.432297 352.174774,182.263367 352.294037,185.028671 
	C352.732513,195.197418 348.100372,203.489670 343.539490,211.991562 
	C340.510529,217.637726 338.309082,223.724396 335.638855,229.568939 
	C335.030945,230.899490 334.026764,232.051285 333.187775,233.273529 
	C329.742126,238.293167 326.289825,243.308228 322.666443,248.651062 
M285.724274,135.616943 
	C285.154022,138.163620 284.104553,140.713684 284.122559,143.256195 
	C284.151733,147.377747 285.109009,151.485580 285.267639,155.614853 
	C285.600433,164.279236 285.463013,172.964935 285.933258,181.619354 
	C286.165344,185.890137 287.284790,190.117096 288.062805,194.352829 
	C289.565948,202.536362 290.972473,210.742661 292.757233,218.865219 
	C293.114594,220.491730 294.980194,221.786835 296.150391,223.234741 
	C296.818085,221.894409 297.480591,220.551437 298.156464,219.215225 
	C298.377747,218.777786 298.575470,218.309860 298.882751,217.937317 
	C302.667297,213.348495 306.703918,208.945892 310.210419,204.154831 
	C314.831177,197.841370 319.928436,191.632538 323.140137,184.610062 
	C325.656128,179.108673 325.941589,172.906647 329.119476,167.050125 
	C337.322021,151.933533 341.081726,135.179962 341.276337,117.878838 
	C341.300354,115.744942 339.123108,113.295952 337.418121,111.518471 
	C335.861176,109.895302 333.350464,109.226089 331.624725,107.718948 
	C324.305634,101.326935 315.766357,99.066238 306.249084,99.607834 
	C302.967285,99.794579 299.377533,98.819893 296.427673,99.831528 
	C285.457458,103.593758 276.261200,117.242523 285.454132,131.272018 
	C286.078949,132.225571 285.876434,133.721298 285.724274,135.616943 
z"/>
<path fill="#1C1A27" opacity="1.000000" stroke="none" 
	d="
M1735.378906,243.871567 
	C1727.170410,239.208084 1718.024048,235.920975 1711.877808,229.679520 
	C1702.076294,219.726273 1697.383423,206.684311 1694.684082,192.627029 
	C1692.505981,181.285080 1692.993042,169.960358 1691.840454,158.670105 
	C1691.528442,155.613342 1692.446899,152.446487 1692.634277,149.320206 
	C1693.098755,141.573746 1692.794678,133.708374 1694.074463,126.105385 
	C1695.218018,119.311150 1697.631836,113.460869 1704.180664,108.439934 
	C1717.785645,98.009048 1732.549927,97.421997 1748.276001,98.509834 
	C1761.069092,99.394791 1772.152344,104.325165 1782.465820,111.558571 
	C1784.324097,112.861839 1786.555176,113.633736 1789.588745,115.132446 
	C1789.588745,112.484009 1790.034424,110.501442 1789.512207,108.819473 
	C1787.156860,101.234245 1784.430176,93.764793 1782.039062,86.189934 
	C1780.907104,82.604248 1780.096069,78.901482 1779.372314,75.206161 
	C1778.132812,68.877098 1776.325073,62.928043 1769.838135,59.339546 
	C1775.322998,52.984341 1772.371216,48.106121 1767.912476,43.349171 
	C1765.161133,40.413578 1766.830200,34.849125 1770.753418,33.330833 
	C1780.382812,29.604242 1791.196167,33.833599 1795.536621,43.218506 
	C1797.042480,46.474300 1797.931763,50.009438 1799.299438,53.336067 
	C1802.985840,62.302860 1807.554321,70.994377 1810.311646,80.231293 
	C1813.098511,89.566452 1814.135742,99.424217 1815.934326,109.054001 
	C1818.278564,121.605919 1820.190796,134.257721 1823.071045,146.685242 
	C1826.393188,161.020065 1830.897705,174.940231 1837.291138,188.393341 
	C1839.522949,193.089203 1841.403198,198.497711 1843.299805,203.635086 
	C1844.655273,207.307068 1846.925171,209.487320 1850.741943,210.145920 
	C1851.559326,210.287003 1852.364624,210.525467 1853.158203,210.773972 
	C1857.287476,212.066986 1863.266968,211.282776 1864.460327,216.462402 
	C1866.030273,223.276733 1866.206299,230.870087 1860.648682,236.192535 
	C1858.511841,238.238953 1853.780518,239.015320 1850.713379,238.301010 
	C1846.516602,237.323593 1842.235718,235.001587 1838.942505,232.155029 
	C1826.782227,221.643585 1817.463623,209.084183 1812.903809,193.345673 
	C1811.060791,186.984680 1808.715576,180.769211 1806.055054,172.873932 
	C1803.352661,177.962509 1801.467407,181.857712 1799.275024,185.571716 
	C1793.967896,194.562439 1788.523438,203.472305 1783.119263,212.405716 
	C1782.177734,213.962326 1781.057617,215.418274 1780.200684,217.017548 
	C1776.149780,224.577637 1770.839844,230.917175 1763.107666,234.954544 
	C1757.272461,238.001419 1751.601196,241.471634 1745.509033,243.869186 
	C1742.697021,244.975891 1739.053467,243.970261 1735.378906,243.871567 
M1747.995605,120.933151 
	C1742.906738,121.476440 1737.809204,121.952568 1732.736206,122.616684 
	C1731.652832,122.758499 1730.378052,123.335587 1729.672729,124.136147 
	C1726.834473,127.357613 1723.706665,130.472946 1721.609375,134.153763 
	C1719.783081,137.359360 1718.538208,141.216370 1718.224976,144.886917 
	C1717.782349,150.074478 1718.680054,155.361252 1718.554932,160.594849 
	C1718.401978,166.990311 1717.410889,173.379120 1717.487305,179.762329 
	C1717.545898,184.639481 1718.415771,189.565109 1719.450928,194.355469 
	C1720.425415,198.865494 1722.611938,203.145721 1723.313477,207.674469 
	C1724.162354,213.155869 1728.687256,216.824600 1733.850098,215.447144 
	C1741.557739,213.390732 1747.422974,208.865463 1752.270508,202.675385 
	C1754.504517,199.822693 1757.150269,197.287445 1759.659912,194.656616 
	C1762.576172,191.599869 1766.507202,189.063049 1768.262939,185.456085 
	C1770.692993,180.463669 1771.369141,174.640228 1773.082031,169.263626 
	C1773.685547,167.369446 1775.222656,165.791733 1776.168945,163.983429 
	C1777.706177,161.045563 1779.121460,158.043213 1780.561401,155.055176 
	C1781.238281,153.650665 1781.537476,151.919815 1782.547852,150.844574 
	C1787.962646,145.082596 1787.725586,140.330170 1781.629517,135.706268 
	C1780.307739,134.703522 1779.168945,133.463196 1777.887939,132.402451 
	C1769.444702,125.411842 1759.880127,121.234436 1747.995605,120.933151 
z"/>
<path fill="#1C1A27" opacity="1.000000" stroke="none" 
	d="
M1962.480347,180.141571 
	C1960.957764,194.222549 1952.635376,204.467804 1944.712158,214.846405 
	C1938.944580,222.401062 1932.877563,229.731644 1926.809814,237.050858 
	C1922.784180,241.906967 1912.356567,244.387115 1906.380737,241.441666 
	C1899.691040,238.144302 1893.178589,234.394592 1886.934814,230.312820 
	C1881.514282,226.769180 1877.491821,221.916168 1877.075195,214.943069 
	C1877.036987,214.304535 1876.805298,213.575974 1876.421143,213.075089 
	C1871.080078,206.113464 1872.243896,197.649384 1870.983032,189.749069 
	C1870.721802,188.112045 1870.579102,186.452866 1870.251709,184.830170 
	C1868.634155,176.813614 1866.956909,168.809067 1865.352539,160.789963 
	C1865.194336,159.999939 1865.195679,159.074936 1865.447754,158.321243 
	C1869.558105,146.030273 1868.914185,133.518799 1867.644043,120.886757 
	C1867.311768,117.582703 1868.097412,113.920593 1869.285645,110.768173 
	C1870.977173,106.280350 1873.396973,102.044586 1875.771851,97.851974 
	C1876.381592,96.775459 1877.921875,96.121834 1879.159180,95.537354 
	C1880.181274,95.054482 1881.602295,95.265442 1882.478760,94.647438 
	C1892.870117,87.321503 1904.726440,89.043022 1916.301025,89.065399 
	C1917.610962,89.067924 1918.946655,89.344818 1920.225098,89.671715 
	C1927.076782,91.423531 1933.917969,93.216896 1940.753540,95.030136 
	C1942.486694,95.489853 1944.452637,95.692711 1945.854248,96.669731 
	C1951.029175,100.277016 1956.661255,100.933998 1962.562622,99.571373 
	C1967.069336,98.530792 1970.802002,99.151695 1973.608032,103.087074 
	C1973.703369,103.220970 1973.819702,103.384018 1973.961426,103.434418 
	C1981.075562,105.965202 1981.596069,113.150375 1984.518799,118.595863 
	C1985.119019,119.714195 1984.719360,121.411484 1984.655151,122.836266 
	C1984.465576,127.042778 1983.568970,131.332657 1984.118042,135.433441 
	C1985.295166,144.228043 1987.207886,152.924088 1988.812378,161.661774 
	C1988.932129,162.313385 1988.754150,163.194778 1989.121704,163.598770 
	C1993.161621,168.037918 1991.135986,173.604919 1992.017212,178.619583 
	C1992.274658,180.084366 1992.451050,181.578186 1992.873169,182.996597 
	C1994.321289,187.862503 1997.546265,191.878479 1996.585693,197.877533 
	C1995.915894,202.060379 1998.732300,206.908371 2000.422729,211.293015 
	C2000.890015,212.505219 2002.859741,213.191132 2004.213745,213.994431 
	C2005.756958,214.910019 2007.797729,215.326035 2008.896606,216.590012 
	C2012.544556,220.786072 2015.972046,225.189224 2019.232544,229.694916 
	C2019.962402,230.703735 2020.190918,232.639786 2019.764404,233.831955 
	C2016.252686,243.646973 2003.642578,246.601608 1995.108032,240.788681 
	C1986.184448,234.710770 1982.359253,225.623611 1978.504883,216.517029 
	C1973.925293,205.696548 1968.199463,195.190079 1967.644043,182.975754 
	C1967.561890,181.169907 1965.541138,179.452194 1964.417358,177.693695 
	C1963.816772,178.402695 1963.216064,179.111710 1962.480347,180.141571 
M1896.978027,197.274368 
	C1897.672607,201.696823 1898.284058,206.135010 1899.114868,210.531754 
	C1899.351074,211.781937 1899.999634,213.145889 1900.892944,214.008286 
	C1901.427734,214.524506 1903.249146,214.618362 1903.733398,214.137604 
	C1909.526978,208.386124 1915.264160,202.571655 1920.837280,196.606445 
	C1924.734009,192.435516 1929.271851,188.484940 1931.839722,183.558395 
	C1934.382446,178.680084 1936.078613,173.525284 1939.367188,168.782501 
	C1947.490601,157.066666 1952.837402,143.991089 1953.681030,129.510681 
	C1953.785400,127.717918 1952.849121,125.038734 1951.484863,124.116211 
	C1940.018677,116.362656 1927.541992,112.475082 1913.417480,113.984932 
	C1898.989014,115.527267 1891.234253,127.958603 1897.516235,140.312653 
	C1897.919189,141.105103 1898.248169,142.510147 1897.841309,143.051987 
	C1892.740967,149.845673 1896.803833,157.644272 1895.367188,164.842896 
	C1894.573853,168.818665 1894.305786,173.020294 1894.594360,177.063477 
	C1895.061646,183.615326 1896.182007,190.120605 1896.978027,197.274368 
z"/>
<path fill="#1C1A27" opacity="1.000000" stroke="none" 
	d="
M1227.163086,234.136932 
	C1220.068726,239.643585 1214.452515,246.660553 1205.131226,248.276993 
	C1202.002441,248.819565 1198.859375,250.699127 1196.278564,252.688522 
	C1190.906738,256.829315 1185.153076,257.253937 1178.873657,255.864578 
	C1175.470093,255.111511 1171.955444,253.987564 1168.570068,254.214432 
	C1162.232910,254.639145 1157.765625,252.089554 1153.873779,247.473450 
	C1152.181519,245.466217 1149.627563,244.179688 1147.963989,242.155640 
	C1145.971680,239.731400 1144.476929,236.890305 1142.843994,234.183090 
	C1142.339722,233.346909 1142.315186,232.146210 1141.685791,231.471710 
	C1132.202515,221.308151 1130.745483,207.894836 1127.726318,195.341614 
	C1126.353882,189.635574 1128.448853,183.168335 1128.405518,177.050415 
	C1128.357910,170.319244 1128.758301,163.288147 1126.996094,156.933228 
	C1124.131836,146.602875 1125.035400,137.482101 1130.587158,128.377182 
	C1132.229614,125.683487 1132.085938,121.945930 1133.045288,118.772690 
	C1133.588257,116.976265 1134.274536,114.569618 1135.653931,113.806015 
	C1139.322388,111.775101 1142.276367,109.668373 1143.183472,105.178879 
	C1143.784790,102.203262 1150.746460,99.257378 1155.693359,100.302536 
	C1160.724487,101.365501 1165.394043,101.778130 1170.252808,99.675461 
	C1171.529053,99.123177 1173.561035,99.647659 1174.999268,100.258560 
	C1180.473145,102.583733 1185.977783,104.896301 1191.233032,107.665253 
	C1210.738770,117.942627 1226.297363,132.225128 1237.482666,151.542374 
	C1245.431885,165.271042 1247.596558,179.928833 1246.405396,195.066910 
	C1245.856567,202.041214 1242.258057,208.796814 1239.879517,215.594604 
	C1239.014648,218.066772 1237.234497,220.269730 1236.646118,222.777191 
	C1235.388794,228.135712 1230.338013,230.066254 1227.163086,234.136932 
M1208.579346,215.072083 
	C1212.193604,210.378448 1216.721558,206.111298 1219.166870,200.872101 
	C1221.646240,195.560059 1224.037720,188.858093 1222.879395,183.547546 
	C1221.512695,177.281326 1221.961426,170.428467 1217.484009,164.399277 
	C1212.181641,157.259323 1209.966553,147.892395 1201.658936,142.804672 
	C1200.173950,141.895279 1199.310791,140.027893 1197.987183,138.787872 
	C1191.989014,133.168427 1186.688232,126.732437 1177.962158,124.750755 
	C1171.143433,123.202232 1169.070679,123.992012 1167.071411,130.865875 
	C1166.792603,131.824600 1166.749634,132.893036 1166.296997,133.752319 
	C1164.975708,136.260361 1163.298340,138.596191 1162.137573,141.169647 
	C1160.501953,144.795975 1159.121216,148.545685 1157.803955,152.303162 
	C1157.270874,153.823608 1157.185059,155.502228 1156.909912,157.111328 
	C1156.508423,159.459534 1156.094727,161.806076 1155.734375,164.160675 
	C1155.486450,165.779892 1155.361328,167.417999 1155.109619,169.036499 
	C1154.200073,174.881622 1152.203857,180.791656 1152.583252,186.547668 
	C1153.131714,194.867889 1155.387451,203.076248 1156.928101,211.329880 
	C1157.263184,213.124680 1157.756592,214.895218 1158.000854,216.700760 
	C1159.287842,226.214050 1164.356445,231.073303 1174.036377,230.830643 
	C1178.506592,230.718582 1182.925049,228.324417 1187.389282,228.247147 
	C1192.562256,228.157593 1196.194824,225.694427 1199.820801,222.789307 
	C1202.669678,220.506699 1205.342285,218.003860 1208.579346,215.072083 
z"/>
<path fill="#1C1A27" opacity="1.000000" stroke="none" 
	d="
M1099.843262,106.720642 
	C1107.210449,105.654205 1113.886597,105.995773 1119.460571,111.018074 
	C1123.781860,114.911644 1123.492065,120.010460 1122.447388,124.933655 
	C1122.177368,126.206085 1119.638306,127.242470 1117.953369,127.917336 
	C1114.613892,129.254883 1111.151855,130.292053 1107.722534,131.397354 
	C1106.325928,131.847458 1104.828125,132.605423 1103.469482,132.443039 
	C1097.779785,131.763016 1093.463745,134.294785 1089.679565,138.015152 
	C1085.469360,142.154221 1081.161499,146.247864 1077.425293,150.796021 
	C1074.947632,153.812134 1073.113770,157.463852 1071.503052,161.060104 
	C1069.112305,166.397964 1066.660767,171.803528 1065.180542,177.429016 
	C1063.519653,183.742355 1060.253052,190.207733 1064.240845,196.930450 
	C1064.631836,197.589630 1064.562134,198.972992 1064.117065,199.605545 
	C1060.765259,204.368347 1060.662109,209.288483 1062.826538,214.529114 
	C1063.294434,215.662247 1063.389282,217.143951 1063.129028,218.351501 
	C1061.598389,225.453079 1063.817871,231.185242 1069.589111,235.326172 
	C1073.947388,238.453232 1074.305420,242.181442 1072.459839,246.685150 
	C1069.871460,253.000977 1061.461304,256.281799 1054.830811,254.962433 
	C1045.096924,253.025604 1043.226929,245.114838 1040.179199,237.900574 
	C1036.911987,230.166473 1033.744263,222.390167 1030.550659,214.625122 
	C1030.047974,213.402924 1029.540649,212.168793 1029.199585,210.896210 
	C1026.714844,201.627960 1024.688110,192.212585 1021.714050,183.105804 
	C1017.703918,170.826385 1012.980957,158.779526 1008.541626,146.640991 
	C1008.200745,145.708862 1007.714539,144.825027 1007.246521,143.944977 
	C1001.981140,134.044434 996.610413,124.198402 991.467285,114.234909 
	C988.070557,107.654633 995.065186,99.731300 1003.780823,100.208008 
	C1009.038635,100.495583 1012.688599,102.731094 1015.995300,107.365112 
	C1024.676880,119.531242 1028.064575,134.088669 1034.975464,147.050095 
	C1038.360352,153.398346 1038.613647,161.410324 1040.342041,168.655518 
	C1040.545166,169.507019 1041.116333,170.270737 1042.157837,172.362808 
	C1042.850830,168.365479 1043.014526,165.611481 1043.828857,163.065491 
	C1046.239746,155.526917 1048.342651,147.806473 1051.676025,140.676010 
	C1053.842651,136.041306 1057.512451,131.851562 1061.287231,128.286804 
	C1066.923584,122.964172 1072.753662,117.499428 1079.421997,113.719635 
	C1085.451416,110.302010 1092.715576,109.062431 1099.843262,106.720642 
z"/>
<path fill="#1C1A27" opacity="1.000000" stroke="none" 
	d="
M145.856842,236.015991 
	C142.761810,226.371613 146.538330,218.072495 155.391373,214.877274 
	C156.647263,214.423996 158.323196,214.815598 159.725723,215.148682 
	C163.590363,216.066498 167.431442,217.098389 171.242874,218.217819 
	C172.652725,218.631882 174.416519,219.054703 175.226547,220.092163 
	C179.253143,225.249435 183.833664,230.213821 186.660080,236.006790 
	C190.055511,242.966019 184.208511,251.241394 176.316803,252.131760 
	C163.056290,253.627869 149.988602,246.849808 145.856842,236.015991 
z"/>
<path fill="#1C1A27" opacity="1.000000" stroke="none" 
	d="
M111.272980,226.794220 
	C118.285141,236.694519 117.620293,240.529907 112.554596,246.710785 
	C108.026215,252.236053 101.358276,251.289932 95.476646,250.574585 
	C86.555115,249.489502 74.482140,241.038010 72.768318,229.572647 
	C72.670280,228.916763 72.396294,228.278275 72.361282,227.623276 
	C72.041603,221.643097 82.686623,213.086487 88.585533,214.261063 
	C97.395378,216.015289 105.664955,218.559082 111.272980,226.794220 
z"/>
</svg>